<mxfile host="app.diagrams.net" modified="2021-09-14T18:13:59.239Z" agent="5.0 (Windows NT 10.0; Win64; x64) AppleWebKit/537.36 (KHTML, like Gecko) Chrome/91.0.4472.164 Safari/537.36" etag="eaqJ4E078ct5H-wiJLt-" version="15.2.5" type="github">
  <diagram id="C5RBs43oDa-KdzZeNtuy" name="Page-1">
    <mxGraphModel dx="1259" dy="519" grid="1" gridSize="10" guides="1" tooltips="1" connect="1" arrows="1" fold="1" page="1" pageScale="1" pageWidth="827" pageHeight="1169" math="0" shadow="0">
      <root>
        <mxCell id="WIyWlLk6GJQsqaUBKTNV-0" />
        <mxCell id="WIyWlLk6GJQsqaUBKTNV-1" parent="WIyWlLk6GJQsqaUBKTNV-0" />
        <mxCell id="WIyWlLk6GJQsqaUBKTNV-2" value="" style="rounded=0;html=1;jettySize=auto;orthogonalLoop=1;fontSize=11;endArrow=block;endFill=0;endSize=8;strokeWidth=1;shadow=0;labelBackgroundColor=none;edgeStyle=orthogonalEdgeStyle;" parent="WIyWlLk6GJQsqaUBKTNV-1" source="WIyWlLk6GJQsqaUBKTNV-3" target="WIyWlLk6GJQsqaUBKTNV-6" edge="1">
          <mxGeometry relative="1" as="geometry" />
        </mxCell>
        <mxCell id="WIyWlLk6GJQsqaUBKTNV-3" value="¿Requiere un servicio en su domicilio?" style="rounded=1;whiteSpace=wrap;html=1;fontSize=12;glass=0;strokeWidth=1;shadow=0;" parent="WIyWlLk6GJQsqaUBKTNV-1" vertex="1">
          <mxGeometry x="160" y="80" width="120" height="40" as="geometry" />
        </mxCell>
        <mxCell id="Vw7MNA-EWWOGb_F03nH--2" value="Si" style="edgeStyle=orthogonalEdgeStyle;rounded=0;orthogonalLoop=1;jettySize=auto;html=1;exitX=0.5;exitY=1;exitDx=0;exitDy=0;" edge="1" parent="WIyWlLk6GJQsqaUBKTNV-1" source="WIyWlLk6GJQsqaUBKTNV-6" target="WIyWlLk6GJQsqaUBKTNV-12">
          <mxGeometry relative="1" as="geometry" />
        </mxCell>
        <mxCell id="Vw7MNA-EWWOGb_F03nH--5" style="edgeStyle=orthogonalEdgeStyle;rounded=0;orthogonalLoop=1;jettySize=auto;html=1;entryX=0.008;entryY=0.592;entryDx=0;entryDy=0;entryPerimeter=0;" edge="1" parent="WIyWlLk6GJQsqaUBKTNV-1" source="WIyWlLk6GJQsqaUBKTNV-6" target="WIyWlLk6GJQsqaUBKTNV-7">
          <mxGeometry relative="1" as="geometry" />
        </mxCell>
        <mxCell id="Vw7MNA-EWWOGb_F03nH--6" value="No" style="edgeLabel;html=1;align=center;verticalAlign=middle;resizable=0;points=[];" vertex="1" connectable="0" parent="Vw7MNA-EWWOGb_F03nH--5">
          <mxGeometry x="-0.1173" y="1" relative="1" as="geometry">
            <mxPoint as="offset" />
          </mxGeometry>
        </mxCell>
        <mxCell id="WIyWlLk6GJQsqaUBKTNV-6" value="&lt;br&gt;¿Conoce a alguien que realice el servicio &lt;br&gt;solicitado?" style="rhombus;whiteSpace=wrap;html=1;shadow=0;fontFamily=Helvetica;fontSize=12;align=center;strokeWidth=1;spacing=6;spacingTop=-4;" parent="WIyWlLk6GJQsqaUBKTNV-1" vertex="1">
          <mxGeometry x="152.5" y="180" width="135" height="120" as="geometry" />
        </mxCell>
        <mxCell id="Vw7MNA-EWWOGb_F03nH--18" style="edgeStyle=orthogonalEdgeStyle;rounded=0;orthogonalLoop=1;jettySize=auto;html=1;exitX=1;exitY=0.5;exitDx=0;exitDy=0;entryX=0.439;entryY=-0.011;entryDx=0;entryDy=0;entryPerimeter=0;" edge="1" parent="WIyWlLk6GJQsqaUBKTNV-1" source="WIyWlLk6GJQsqaUBKTNV-7" target="Vw7MNA-EWWOGb_F03nH--17">
          <mxGeometry relative="1" as="geometry" />
        </mxCell>
        <mxCell id="WIyWlLk6GJQsqaUBKTNV-7" value="Ingrese a la búsqueda de contactos recomendados por servicio y ubicación" style="rounded=1;whiteSpace=wrap;html=1;fontSize=12;glass=0;strokeWidth=1;shadow=0;" parent="WIyWlLk6GJQsqaUBKTNV-1" vertex="1">
          <mxGeometry x="414" y="213" width="156" height="45" as="geometry" />
        </mxCell>
        <mxCell id="Vw7MNA-EWWOGb_F03nH--3" style="edgeStyle=orthogonalEdgeStyle;rounded=0;orthogonalLoop=1;jettySize=auto;html=1;exitX=0.5;exitY=1;exitDx=0;exitDy=0;entryX=0.5;entryY=0;entryDx=0;entryDy=0;" edge="1" parent="WIyWlLk6GJQsqaUBKTNV-1" source="WIyWlLk6GJQsqaUBKTNV-12" target="Vw7MNA-EWWOGb_F03nH--1">
          <mxGeometry relative="1" as="geometry" />
        </mxCell>
        <mxCell id="WIyWlLk6GJQsqaUBKTNV-12" value="Recomiéndelo" style="rounded=1;whiteSpace=wrap;html=1;fontSize=12;glass=0;strokeWidth=1;shadow=0;" parent="WIyWlLk6GJQsqaUBKTNV-1" vertex="1">
          <mxGeometry x="160" y="390" width="120" height="40" as="geometry" />
        </mxCell>
        <mxCell id="Vw7MNA-EWWOGb_F03nH--8" style="edgeStyle=orthogonalEdgeStyle;rounded=0;orthogonalLoop=1;jettySize=auto;html=1;exitX=0.5;exitY=1;exitDx=0;exitDy=0;" edge="1" parent="WIyWlLk6GJQsqaUBKTNV-1" source="Vw7MNA-EWWOGb_F03nH--1">
          <mxGeometry relative="1" as="geometry">
            <mxPoint x="150" y="630" as="targetPoint" />
          </mxGeometry>
        </mxCell>
        <mxCell id="Vw7MNA-EWWOGb_F03nH--10" value="Si" style="edgeLabel;html=1;align=center;verticalAlign=middle;resizable=0;points=[];" vertex="1" connectable="0" parent="Vw7MNA-EWWOGb_F03nH--8">
          <mxGeometry x="0.2392" y="4" relative="1" as="geometry">
            <mxPoint as="offset" />
          </mxGeometry>
        </mxCell>
        <mxCell id="Vw7MNA-EWWOGb_F03nH--9" value="No" style="edgeStyle=orthogonalEdgeStyle;rounded=0;orthogonalLoop=1;jettySize=auto;html=1;exitX=1;exitY=0.5;exitDx=0;exitDy=0;entryX=0;entryY=0.5;entryDx=0;entryDy=0;" edge="1" parent="WIyWlLk6GJQsqaUBKTNV-1" source="Vw7MNA-EWWOGb_F03nH--1" target="Vw7MNA-EWWOGb_F03nH--13">
          <mxGeometry relative="1" as="geometry">
            <mxPoint x="410" y="500" as="targetPoint" />
          </mxGeometry>
        </mxCell>
        <mxCell id="Vw7MNA-EWWOGb_F03nH--1" value="¿El contacto tiene acceso a internet?" style="rhombus;whiteSpace=wrap;html=1;shadow=0;fontFamily=Helvetica;fontSize=12;align=center;strokeWidth=1;spacing=6;spacingTop=-4;" vertex="1" parent="WIyWlLk6GJQsqaUBKTNV-1">
          <mxGeometry x="152.5" y="490" width="135" height="80" as="geometry" />
        </mxCell>
        <mxCell id="Vw7MNA-EWWOGb_F03nH--12" value="" style="edgeStyle=orthogonalEdgeStyle;rounded=0;orthogonalLoop=1;jettySize=auto;html=1;exitX=0.5;exitY=0;exitDx=0;exitDy=0;" edge="1" parent="WIyWlLk6GJQsqaUBKTNV-1" source="Vw7MNA-EWWOGb_F03nH--11" target="Vw7MNA-EWWOGb_F03nH--1">
          <mxGeometry relative="1" as="geometry" />
        </mxCell>
        <mxCell id="Vw7MNA-EWWOGb_F03nH--15" style="edgeStyle=orthogonalEdgeStyle;rounded=0;orthogonalLoop=1;jettySize=auto;html=1;exitX=1;exitY=0.5;exitDx=0;exitDy=0;entryX=0;entryY=0.5;entryDx=0;entryDy=0;" edge="1" parent="WIyWlLk6GJQsqaUBKTNV-1" source="Vw7MNA-EWWOGb_F03nH--11" target="Vw7MNA-EWWOGb_F03nH--14">
          <mxGeometry relative="1" as="geometry" />
        </mxCell>
        <mxCell id="Vw7MNA-EWWOGb_F03nH--11" value="Remita el enlace del formulario&amp;nbsp; para autoregistro" style="rounded=1;whiteSpace=wrap;html=1;fontSize=12;glass=0;strokeWidth=1;shadow=0;" vertex="1" parent="WIyWlLk6GJQsqaUBKTNV-1">
          <mxGeometry x="90" y="630" width="120" height="50" as="geometry" />
        </mxCell>
        <mxCell id="Vw7MNA-EWWOGb_F03nH--16" value="" style="edgeStyle=orthogonalEdgeStyle;rounded=0;orthogonalLoop=1;jettySize=auto;html=1;" edge="1" parent="WIyWlLk6GJQsqaUBKTNV-1" source="Vw7MNA-EWWOGb_F03nH--13" target="Vw7MNA-EWWOGb_F03nH--14">
          <mxGeometry relative="1" as="geometry" />
        </mxCell>
        <mxCell id="Vw7MNA-EWWOGb_F03nH--13" value="Brinde apoyo para el diligenciamiento del autoregistro (previa autorización del contacto)" style="rounded=1;whiteSpace=wrap;html=1;fontSize=12;glass=0;strokeWidth=1;shadow=0;" vertex="1" parent="WIyWlLk6GJQsqaUBKTNV-1">
          <mxGeometry x="414" y="470" width="120" height="70" as="geometry" />
        </mxCell>
        <mxCell id="Vw7MNA-EWWOGb_F03nH--14" value="Ingrese a la plataforma y recomiende su contacto conocido según los criterios establecidos" style="rounded=1;whiteSpace=wrap;html=1;fontSize=12;glass=0;strokeWidth=1;shadow=0;" vertex="1" parent="WIyWlLk6GJQsqaUBKTNV-1">
          <mxGeometry x="330" y="620" width="146" height="70" as="geometry" />
        </mxCell>
        <mxCell id="Vw7MNA-EWWOGb_F03nH--19" style="edgeStyle=orthogonalEdgeStyle;rounded=0;orthogonalLoop=1;jettySize=auto;html=1;exitX=0.5;exitY=1;exitDx=0;exitDy=0;" edge="1" parent="WIyWlLk6GJQsqaUBKTNV-1" source="Vw7MNA-EWWOGb_F03nH--17">
          <mxGeometry relative="1" as="geometry">
            <mxPoint x="705" y="450" as="targetPoint" />
          </mxGeometry>
        </mxCell>
        <mxCell id="Vw7MNA-EWWOGb_F03nH--17" value="Revise los recomendados en la categoría solicitada y seleccione el que más se ajusta a sus requerimientos" style="rounded=1;whiteSpace=wrap;html=1;fontSize=12;glass=0;strokeWidth=1;shadow=0;" vertex="1" parent="WIyWlLk6GJQsqaUBKTNV-1">
          <mxGeometry x="630" y="300" width="150" height="80" as="geometry" />
        </mxCell>
        <mxCell id="Vw7MNA-EWWOGb_F03nH--21" style="edgeStyle=orthogonalEdgeStyle;rounded=0;orthogonalLoop=1;jettySize=auto;html=1;exitX=0.5;exitY=1;exitDx=0;exitDy=0;entryX=1;entryY=0.5;entryDx=0;entryDy=0;" edge="1" parent="WIyWlLk6GJQsqaUBKTNV-1" source="Vw7MNA-EWWOGb_F03nH--20" target="Vw7MNA-EWWOGb_F03nH--14">
          <mxGeometry relative="1" as="geometry" />
        </mxCell>
        <mxCell id="Vw7MNA-EWWOGb_F03nH--20" value="Realice su cotización o servicio" style="rounded=1;whiteSpace=wrap;html=1;fontSize=12;glass=0;strokeWidth=1;shadow=0;" vertex="1" parent="WIyWlLk6GJQsqaUBKTNV-1">
          <mxGeometry x="630" y="450" width="150" height="40" as="geometry" />
        </mxCell>
      </root>
    </mxGraphModel>
  </diagram>
</mxfile>
